HIERARCHY
ROOT Hips
{
	OFFSET 0.00000 0.00000 0.00000
	CHANNELS 6 Xposition Yposition Zposition Zrotation Yrotation Xrotation 
	JOINT LHipJoint
	{
		OFFSET 0 0 0
		CHANNELS 3 Zrotation Yrotation Xrotation
		JOINT LeftHip
		{
			OFFSET 1.60223 -1.58443 0.78595
			CHANNELS 3 Zrotation Yrotation Xrotation
			JOINT LeftKnee
			{
				OFFSET 2.21690 -6.09089 0.00000
				CHANNELS 3 Zrotation Yrotation Xrotation
				JOINT LeftAnkle
				{
					OFFSET 2.34805 -6.45122 0.00000
					CHANNELS 3 Zrotation Yrotation Xrotation
					JOINT LeftToe
					{
						OFFSET 0.35452 -0.97402 1.38549
						CHANNELS 3 Zrotation Yrotation Xrotation
						End Site
						{
							OFFSET 0.00000 -0.00000 0.82816
						}
					}
				}
			}
		}
	}
	JOINT RHipJoint
	{
		OFFSET 0 0 0
		CHANNELS 3 Zrotation Yrotation Xrotation
		JOINT RightHip
		{
			OFFSET -1.56524 -1.58443 0.78595
			CHANNELS 3 Zrotation Yrotation Xrotation
			JOINT RightKnee
			{
				OFFSET -2.15558 -5.92241 0.00000
				CHANNELS 3 Zrotation Yrotation Xrotation
				JOINT RightAnkle
				{
					OFFSET -2.35077 -6.45870 0.00000
					CHANNELS 3 Zrotation Yrotation Xrotation
					JOINT RightToe
					{
						OFFSET -0.26910 -0.73935 1.33295
						CHANNELS 3 Zrotation Yrotation Xrotation
						End Site
						{
							OFFSET -0.00000 -0.00000 0.75962
						}
					}
				}
			}
		}
	}
	JOINT lowerback
	{
		OFFSET 0 0 0
		CHANNELS 3 Zrotation Yrotation Xrotation
		JOINT Chest
		{
			OFFSET -0.05489 1.97104 -0.02993
			CHANNELS 3 Zrotation Yrotation Xrotation
			JOINT Chest2
			{
				OFFSET -0.00702 1.94230 0.13626
				CHANNELS 3 Zrotation Yrotation Xrotation
				JOINT lowerneck
				{
					OFFSET 0 0 0
					CHANNELS 3 Zrotation Yrotation Xrotation
					JOINT Neck
					{
						OFFSET -0.07858 1.62869 -0.02510
						CHANNELS 3 Zrotation Yrotation Xrotation
						JOINT Head
						{
							OFFSET 0.13978 1.59213 -0.29859
							CHANNELS 3 Zrotation Yrotation Xrotation
							End Site
							{
								OFFSET 0.05353 1.64420 -0.10000
							}
						}
					}
				}
				JOINT LeftCollar
				{
					OFFSET 0 0 0
					CHANNELS 3 Zrotation Yrotation Xrotation
					JOINT LeftShoulder
					{
						OFFSET 3.48263 1.15278 0.52941
CHANNELS 3 Zrotation Xrotation Yrotation
						JOINT LeftElbow
						{
OFFSET 0 -4.592070 -0.000000
CHANNELS 3 Zrotation Xrotation Yrotation
							JOINT LeftWrist
							{
OFFSET 0 -2.981090 -0.000000
CHANNELS 3 Zrotation Xrotation Yrotation
								JOINT lhand
								{
									OFFSET 0 0 0
CHANNELS 3 Zrotation Xrotation Yrotation
									JOINT LFingers
									{
OFFSET 0 -0.480200 -0.000000
CHANNELS 3 Zrotation Xrotation Yrotation
										End Site
										{
OFFSET 0 -0.387150 -0.000000
										}
									}
								}
								JOINT LThumb
								{
OFFSET 0 0.000000 0.000000
CHANNELS 3 Zrotation Xrotation Yrotation
									End Site
									{
OFFSET 0 -0.393060 0.393060
									}
								}
							}
						}
					}
				}
				JOINT RightCollar
				{
					OFFSET 0 0 0
					CHANNELS 3 Zrotation Yrotation Xrotation
					JOINT RightShoulder
					{
						OFFSET -3.52496 1.12722 0.24548
CHANNELS 3 Zrotation Xrotation Yrotation
						JOINT RightElbow
						{
OFFSET 0 -4.765080 -0.000000
CHANNELS 3 Zrotation Xrotation Yrotation
							JOINT RightWrist
							{
OFFSET 0 -2.789020 -0.000000
CHANNELS 3 Zrotation Xrotation Yrotation
								JOINT rhand
								{
									OFFSET 0 0 0
CHANNELS 3 Zrotation Xrotation Yrotation
									JOINT RFingers
									{
OFFSET 0 -0.721300 -0.000000
CHANNELS 3 Zrotation Xrotation Yrotation
										End Site
										{
OFFSET 0 -0.581530 -0.000000
										}
									}
								}
								JOINT RThumb
								{
OFFSET 0 0.000000 0.000000
CHANNELS 3 Zrotation Xrotation Yrotation
									End Site
									{
OFFSET 0 -0.590410 0.590410
									}
								}
							}
						}
					}
				}
			}
		}
	}
}
MOTION
Frames: 4
Frame Time: 0.008333333333333333
23.161900 15.922900 -1.246400 17.854900 -86.907200 -11.801800 0.000000 0.000000 0.000000 -21.962800 -8.491700 -8.709900 2.412900 9.677800 27.939600 1.584000 -14.086700 -23.188200 0.312800 3.595400 9.941100 0.000000 0.000000 0.000000 18.916100 5.574500 -12.685000 -2.175200 -9.221900 26.491900 -1.995000 -0.268000 -26.839200 -0.368700 3.900400 -10.796500 -6.162100 1.633900 -3.103900 0.864500 2.073700 -6.012800 4.329800 1.278000 -4.779500 -12.669200 -4.990500 -1.436000 12.805200 -7.328400 7.764300 5.716000 -3.633100 3.463000 0.000000 -0.000000 0.000000 -12.171400 12.495300 1.127900 21.420300 -32.315600 6.273100 37.905800 48.856500 -47.527700 0.000000 0.000000 0.000000 -7.125000 0.000000 0.000000 -13.513000 83.981600 12.036900 0.000000 -0.000000 0.000000 4.225000 4.952700 -11.443600 -9.473200 -15.911300 -1.326900 -2.118700 0.650500 -57.046500 0.000000 0.000000 0.000000 7.125000 0.000000 -0.000000 18.819400 -24.697500 25.955000
23.120950 15.986249 -1.270086 18.590115 -87.095993 -12.831762 0.000000 0.000000 0.000000 -22.495561 -5.138513 -12.007496 2.799021 10.362330 30.158204 1.827897 -11.183846 -24.359540 1.033442 -6.466042 -18.142807 0.000000 0.000000 0.000000 19.198800 5.181179 -10.961266 -1.820619 -8.481958 24.187692 -1.839486 -0.771018 -25.944900 -0.368453 3.898798 -10.792070 -6.183644 1.751986 -3.359040 0.673728 2.258857 -5.726793 4.151560 1.349907 -4.346304 -12.581911 -4.977740 -1.367936 13.156436 -7.330888 7.489319 5.815549 -3.625367 3.379235 0.000000 0.000000 0.000000 -11.812224 12.178283 1.376937 21.087893 -31.930776 6.096384 36.855572 46.195845 -43.613769 0.000000 0.000000 0.000000 -7.125000 0.000000 0.000000 -3.242520 79.939153 2.628622 0.000000 0.000000 0.000000 4.676063 4.894065 -11.742022 -9.765495 -16.371924 -1.408144 -1.445368 1.513187 -56.727022 0.000000 0.000000 0.000000 7.125000 0.000000 0.000000 19.018110 -24.323712 26.197830
23.102056 15.985100 -1.283125 20.035683 -87.146728 -14.273668 0.000000 0.000000 0.000000 -22.520945 -5.185079 -11.952649 2.819874 10.397590 30.273988 1.860555 -11.082698 -24.563769 1.070798 -6.578042 -18.471088 0.000000 0.000000 0.000000 19.195884 4.980982 -10.793011 -1.779346 -8.390582 23.906762 -1.845106 -0.591575 -25.920597 -0.369660 3.905230 -10.810088 -6.110309 1.732852 -3.815377 0.484269 2.271121 -5.459663 3.932534 1.327882 -3.794763 -12.682046 -4.937768 -1.443488 13.493961 -7.262432 7.177965 5.942426 -3.582171 3.306390 0.000000 0.000000 0.000000 -11.460487 11.670013 1.203427 21.078855 -31.920259 6.091560 36.374358 46.466901 -45.763934 0.000000 0.000000 0.000000 -7.125000 0.000000 0.000000 -10.187040 81.764777 8.631891 0.000000 0.000000 0.000000 4.959245 4.490547 -11.774927 -9.832449 -16.477056 -1.427053 -1.268037 1.920712 -56.449730 0.000000 0.000000 0.000000 7.125000 0.000000 0.000000 19.040511 -24.043754 26.190104
23.076260 15.986784 -1.297167 20.756687 -87.231360 -14.897591 0.000000 0.000000 0.000000 -22.477358 -5.101150 -11.975913 2.818736 10.395771 30.268014 1.868944 -11.022727 -24.613254 1.106035 -6.682087 -18.776986 0.000000 0.000000 0.000000 19.258863 5.044177 -10.732659 -1.765394 -8.359250 23.810525 -1.842036 -0.628720 -25.912236 -0.362169 3.866066 -10.700129 -6.073925 1.742317 -4.282526 0.344924 2.313381 -5.352710 3.784908 1.330552 -3.415853 -12.672768 -4.955777 -1.529754 13.499486 -7.270716 7.116431 5.939907 -3.582386 3.303947 0.000000 0.000000 0.000000 -11.271957 11.416897 1.294017 21.087078 -31.929864 6.095947 35.721416 45.844284 -45.790097 0.000000 0.000000 0.000000 -7.125000 0.000000 0.000000 -11.842970 81.512922 9.980527 0.000000 0.000000 0.000000 5.221328 4.329492 -11.613854 -9.951107 -16.663020 -1.460863 -0.498624 2.381578 -56.324394 0.000000 0.000000 0.000000 7.125000 0.000000 0.000000 19.311516 -23.846320 26.565377
